<?xml version="1.0" standalone="no"?>
<!DOCTYPE svg PUBLIC "-//W3C//DTD SVG 20010904//EN"
 "http://www.w3.org/TR/2001/REC-SVG-20010904/DTD/svg10.dtd">
<svg version="1.0" xmlns="http://www.w3.org/2000/svg"
 width="210.000000pt" height="210.000000pt" viewBox="0 0 210.000000 210.000000"
 preserveAspectRatio="xMidYMid meet">

<g transform="translate(0.000000,210.000000) scale(0.100000,-0.100000)"
fill="#000000" stroke="none">
<path d="M190 1150 c-6 -12 -9 -65 -8 -127 l3 -108 48 -3 47 -3 0 60 c0 34 4
61 8 61 5 0 33 -13 63 -30 30 -16 62 -30 72 -30 10 0 45 14 78 30 33 17 64 28
69 25 6 -4 10 -31 10 -61 l0 -54 45 0 45 0 0 124 c0 90 -3 126 -12 129 -7 3
-62 -21 -121 -52 l-108 -56 -109 58 c-59 31 -110 57 -114 57 -3 0 -10 -9 -16
-20z"/>
<path d="M750 1040 l0 -131 48 3 47 3 0 125 0 125 -47 3 -48 3 0 -131z"/>
<path d="M931 1156 c-8 -9 -11 -52 -9 -127 l3 -114 48 -3 47 -3 0 60 c0 33 3
62 8 64 4 3 68 -24 141 -58 74 -35 141 -61 148 -58 10 4 13 37 13 130 l0 124
-47 -3 -48 -3 -5 -61 -5 -62 -135 64 c-74 34 -138 63 -141 63 -4 1 -12 -5 -18
-13z"/>
<path d="M1410 1040 c0 -131 0 -131 23 -128 21 3 22 6 22 128 0 122 -1 125
-22 128 -23 3 -23 3 -23 -128z"/>
<path d="M1628 1161 c-66 -22 -118 -75 -118 -121 0 -31 34 -79 73 -101 36 -21
55 -24 137 -24 82 0 101 3 137 24 39 22 73 70 73 101 0 31 -34 79 -73 100 -32
19 -60 24 -122 27 -44 1 -92 -1 -107 -6z m201 -48 c36 -23 50 -44 51 -74 0
-31 -41 -76 -79 -87 -33 -9 -129 -9 -162 0 -38 11 -79 56 -79 88 0 32 42 78
79 86 14 3 31 8 36 10 22 9 130 -7 154 -23z"/>
</g>
</svg>
